Coordinates
version=1
nRows=10
nColumns=33
inDegrees=yes

Units are S.I. units (second, meters, Newtons, ...)
Angles are in degrees.

endheader
time	ground_thorax_rot_x	ground_thorax_rot_y	ground_thorax_rot_z	ground_thorax_tx	ground_thorax_ty	ground_thorax_tz	clav_prot_r	clav_elev_r	scapula_abduction_r	scapula_elevation_r	scapula_upward_rot_r	scapula_winging_r	shoulder_elv_r	plane_of_elev_r	axial_rot_r	elbow_flexion_r	pro_sup_r	wrist_flex_r	wrist_dev_r	clav_prot_l	clav_elev_l	scapula_abduction_l	scapula_elevation_l	scapula_upward_rot_l	scapula_winging_l	shoulder_elv_l	plane_of_elev_l	axial_rot_l	elbow_flexion_l	pro_sup_l	wrist_flex_l	wrist_dev_l
     11.10000000	     40.71560991	     13.26379941	     11.23694344	   -195.56206176	    823.86326052	      3.76564738	     -2.89113266	     41.34400608	     45.00000000	     45.00000000	     31.30024903	   -836.05826057	  -2455.07826642	     19.22548432	   -179.99999979	   2168.48520117	   -131.12834443	     16.88093131	     13.39047077	     -2.21624149	    -45.00000000	    -45.00000000	     45.00000000	     20.59570319	   -968.69540829	  -2434.43806561	     13.47915319	    179.99999979	   -712.32183514	   -155.14333033	     12.36266842	    -15.54146391
     11.11000000	     40.72250150	     13.17228052	     11.17891646	   -197.22799173	    824.94515470	      3.68985094	     -2.88534664	     41.31103933	     45.00000000	     45.00000000	     31.22361676	   -836.05796755	  -2454.94283997	     19.27564649	   -179.99999979	   2168.52059322	   -131.64257600	     16.90245253	     13.45360254	     -2.13494045	    -45.00000000	    -45.00000000	     45.00000000	     20.55475711	   -968.66735991	  -2434.23127934	     13.48333165	    179.99999979	   -712.30216893	   -155.22426638	     12.39860097	    -15.59502811
     11.12000000	     40.72232406	     13.09518267	     11.13033237	   -198.87705069	    826.01706384	      3.61377967	     -2.87293666	     41.28794925	     45.00000000	     45.00000000	     31.12172596	   -836.04520113	  -2454.83109205	     19.31562895	   -179.99999979	   2168.57310703	   -132.14136479	     16.92610627	     13.52130896	     -2.05285258	    -45.00000000	    -45.00000000	     45.00000000	     20.49783964	   -968.63485134	  -2434.03605320	     13.48147023	    179.99999979	   -712.27932689	   -155.29166661	     12.43519170	    -15.65351065
     11.13000000	     40.72680657	     12.97835117	     11.01189009	   -200.50594596	    827.07477201	      3.53958304	     -2.85289720	     41.27695079	     45.00000000	     45.00000000	     31.03619441	   -836.08309551	  -2454.74682225	     19.35310609	   -179.99999979	   2168.50239627	   -132.61808580	     17.01149907	     13.58962168	     -1.99077460	    -45.00000000	    -45.00000000	     45.00000000	     20.44246531	   -968.64144991	  -2433.86143562	     13.50807728	    179.99999979	   -712.29606090	   -155.35024001	     12.48945055	    -15.74199648
     11.14000000	     40.73016310	     12.88566098	     10.97325067	   -202.11174813	    828.11385109	      3.46913346	     -2.84952031	     41.25114947	     45.00000000	     45.00000000	     30.94135448	   -836.06144811	  -2454.62924110	     19.39184816	   -179.99999979	   2168.58482966	   -133.06794974	     17.00761590	     13.64142085	     -1.89904547	    -45.00000000	    -45.00000000	     45.00000000	     20.39923123	   -968.59948170	  -2433.66625107	     13.50748682	    179.99999979	   -712.25204499	   -155.38862288	     12.50448072	    -15.78056851
     11.15000000	     40.73371981	     12.73970444	     10.82990409	   -203.69007570	    829.12858712	      3.40401700	     -2.82438422	     41.22033408	     45.00000000	     45.00000000	     30.81682148	   -836.08683518	  -2454.55841334	     19.42800896	   -179.99999979	   2168.50431187	   -133.50819681	     17.09921991	     13.70599016	     -1.83777840	    -45.00000000	    -45.00000000	     45.00000000	     20.31852703	   -968.60040297	  -2433.53024664	     13.52608408	    179.99999979	   -712.29000498	   -155.42647873	     12.55572701	    -15.87626717
     11.16000000	     40.77812154	     12.55949692	     10.69351487	   -205.23533500	    830.11234807	      3.34535337	     -2.80300093	     41.16677961	     45.00000000	     45.00000000	     30.67413778	   -836.03173223	  -2454.53091433	     19.49993950	   -179.99999979	   2168.48644053	   -133.91169645	     17.15637153	     13.76492174	     -1.75240860	    -45.00000000	    -45.00000000	     45.00000000	     20.27362660	   -968.55316638	  -2433.39784339	     13.50861567	    179.99999979	   -712.33798787	   -155.46021291	     12.57997175	    -15.95044277
     11.17000000	     40.78447508	     12.50159703	     10.66677745	   -206.74767294	    831.06197908	      3.29293863	     -2.79446702	     41.18091134	     45.00000000	     45.00000000	     30.58742093	   -836.00761573	  -2454.37915805	     19.55432972	   -179.99999979	   2168.62692595	   -134.27993467	     17.16102387	     13.82569606	     -1.69353022	    -45.00000000	    -45.00000000	     45.00000000	     20.15646638	   -968.50475599	  -2433.19770107	     13.49063396	    179.99999979	   -712.34185616	   -155.48875484	     12.59744195	    -16.01308771
     11.18000000	     40.82427689	     12.40700174	     10.60837072	   -208.22336554	    831.97237080	      3.24576660	     -2.78597615	     41.16504238	     45.00000000	     45.00000000	     30.50107299	   -836.00718381	  -2454.28149925	     19.61685418	   -179.99999979	   2168.59634184	   -134.65170911	     17.20428084	     13.86231398	     -1.59755213	    -45.00000000	    -45.00000000	     45.00000000	     20.05331993	   -968.46773214	  -2433.04896181	     13.48485215	    179.99999979	   -712.34869416	   -155.51664848	     12.61465616	    -16.07550519
     11.19000000	     40.82528276	     12.35499937	     10.60679181	   -209.66851338	    832.84515318	      3.20144343	     -2.76356156	     41.12020268	     45.00000000	     45.00000000	     30.36699672	   -835.98339171	  -2454.16148984	     19.65589562	   -179.99999979	   2168.68802803	   -135.00137790	     17.22155626	     13.91006748	     -1.53026655	    -45.00000000	    -45.00000000	     45.00000000	     19.87918812	   -968.43995023	  -2432.90540002	     13.46954803	    179.99999979	   -712.34994575	   -155.54508596	     12.63111789	    -16.13639918
